<?xml version="1.0" encoding="utf-8"?>
<!-- Generator: Adobe Illustrator 21.0.2, SVG Export Plug-In . SVG Version: 6.00 Build 0)  -->
<svg version="1.1" id="svgSignature" xmlns="http://www.w3.org/2000/svg" xmlns:xlink="http://www.w3.org/1999/xlink" x="0px"
	 y="0px" viewBox="0 0 250 46" style="enable-background:new 0 0 250 46;" xml:space="preserve">
<style type="text/css">
	.st0{fill:#010101;}
	.st1{font-family:'Gotham-Light';}
	.st2{font-size:13px;}
	.st3{fill:none;stroke:#010101;stroke-width:0.7577;}
	.st4{fill:#18453B;}
</style>
<text transform="matrix(1 0 0 1 49.2033 13.8008)" class="st0 st1 st2">Institutional Studies</text>
<text transform="matrix(1 0 0 1 49.2033 27.8008)" class="st0 st1 st2">Office of Planning and Budgets</text>
<line class="st3" x1="42.2" y1="0" x2="42.2" y2="45.7"/>
<g transform="matrix(1 0 0 1 0 8)">
	<path class="st4" d="M137.7,26.5V31c0,0.8,0.2,1.8,1.6,1.8c1.2,0,1.7-0.8,1.7-1.9l0-4.4c0-0.2-0.1-0.4-0.3-0.5h1.2
		c-0.2,0.1-0.3,0.2-0.3,0.5l0,4.4c0,1.8-1,2.5-2.4,2.5c-1.2,0-2.7-0.6-2.7-2.5v-4.5c0-0.2-0.2-0.4-0.3-0.5h2
		C137.9,26.1,137.7,26.2,137.7,26.5z"/>
	<path class="st4" d="M148.6,26.5c0-0.2-0.1-0.4-0.3-0.5h1.1c-0.2,0.1-0.3,0.2-0.3,0.5v7.1c0,0-4.9-6.1-4.9-6.2v5.4
		c0,0.2,0.1,0.4,0.3,0.5h-1.1c0.2-0.1,0.3-0.3,0.3-0.5v-5.8c0-0.4,0-0.4-0.2-0.7c-0.1-0.1-0.2-0.3-0.5-0.4h1.8l3.8,4.7L148.6,26.5
		L148.6,26.5z"/>
	<path class="st4" d="M152.7,26c-0.2,0.1-0.3,0.2-0.3,0.5v6.4c0,0.2,0.1,0.4,0.3,0.5h-1.9c0.2-0.1,0.3-0.3,0.3-0.5v-6.4
		c0-0.2-0.1-0.4-0.3-0.5H152.7z"/>
	<path class="st4" d="M158.9,26.5c0.1-0.3,0.1-0.4-0.2-0.5h1.3c-0.3,0.2-0.3,0.3-0.4,0.5c-0.2,0.4-2.6,7-2.6,7s-2.7-6.6-2.9-7
		c-0.1-0.2-0.2-0.4-0.6-0.5h2.3c-0.3,0.1-0.3,0.3-0.2,0.6c0,0.1,1.7,4.5,1.7,4.5S158.9,26.6,158.9,26.5z"/>
	<path class="st4" d="M165.1,26.9c-0.2-0.3-0.4-0.4-0.8-0.4c-0.3,0-1.7,0-1.7,0V29h1.5c0.1,0,0.3-0.2,0.4-0.3v1.1
		c-0.1-0.2-0.2-0.3-0.4-0.3h-1.5v3.2c0.2,0,0.8,0.1,1.3,0.1c0.9,0,1.3,0,1.7-0.7l-0.2,1.2H161c0.2-0.1,0.3-0.2,0.3-0.5v-6.4
		c0-0.2-0.1-0.4-0.3-0.5h4.1L165.1,26.9z"/>
	<path class="st4" d="M169.6,29.6c0.7,0.1,1,0.6,1.2,0.8c0,0,1.2,2,1.6,2.5c0.2,0.3,0.7,0.4,0.7,0.4l-1.3,0c-0.4,0-0.7-0.3-0.9-0.5
		c-0.5-0.7-0.9-1.5-1.3-2.1c-0.3-0.4-0.5-0.9-0.9-0.9c-0.1,0-0.5,0-0.5,0v2.9c0,0.2,0.1,0.4,0.3,0.5h-1.9c0.2-0.1,0.3-0.3,0.3-0.5
		v-6.4c0-0.2-0.1-0.4-0.3-0.5h2.2c2.1,0,2.6,1.1,2.6,1.8C171.3,29,170.3,29.5,169.6,29.6z M168.1,26.5v2.8c0,0,0.3,0,0.5,0
		c0.7,0,1.4-0.4,1.4-1.5c0-0.5-0.3-1.4-1.3-1.4C168.4,26.5,168.1,26.5,168.1,26.5z"/>
	<path class="st4" d="M177.8,31.1c0,1.3-1.1,2.3-2.4,2.3c-0.9,0-1.6-0.3-2-0.5l-0.1-1.8c0.2,0.8,0.8,1.8,1.9,1.8
		c1,0,1.3-0.8,1.3-1.3c0-1-0.9-1.2-1.8-1.7c-0.9-0.5-1.4-1.1-1.4-2c0-1.5,1.3-2,2.2-2c0.3,0,1,0.1,1.5,0.4l0,1.6
		c-0.1-0.6-0.7-1.4-1.7-1.4c-0.8,0-1.1,0.6-1.1,1c0,0.7,0.4,0.9,1.4,1.4C176.8,29.3,177.8,29.7,177.8,31.1z"/>
	<path class="st4" d="M180.6,26c-0.2,0.1-0.3,0.2-0.3,0.5v6.4c0,0.2,0.1,0.4,0.3,0.5h-1.9c0.2-0.1,0.3-0.3,0.3-0.5v-6.4
		c0-0.2-0.1-0.4-0.3-0.5H180.6z"/>
	<path class="st4" d="M185.1,26.5v6.3c0,0.2,0.1,0.4,0.3,0.5h-1.8c0.2-0.1,0.3-0.3,0.3-0.5v-6.3c-0.8,0-1.6,0.1-1.6,0.1
		c-0.2,0-0.4,0.2-0.5,0.4v-1h5.6v1c-0.1-0.2-0.2-0.4-0.5-0.4C186.8,26.6,185.8,26.5,185.1,26.5z"/>
	<path class="st4" d="M193.9,26c-0.3,0.1-0.6,0.4-0.7,0.7l-1.6,3.3v2.9c0,0.2,0.2,0.4,0.4,0.5h-2c0.2-0.1,0.4-0.2,0.4-0.5V30l-2-3.5
		c-0.1-0.3-0.3-0.4-0.5-0.5h2.3c-0.3,0.1-0.4,0.2-0.2,0.7l1.4,2.7l1.3-2.8c0.1-0.2,0.1-0.5-0.2-0.5L193.9,26L193.9,26z"/>
	<path class="st4" d="M55.7,26.1h1.7c-0.2,0.1-0.3,0.2-0.3,0.5v6.3c0,0.2,0.1,0.4,0.3,0.5h-1.8c0.2-0.1,0.3-0.2,0.3-0.5v-5.4
		c0-0.1,0-0.2,0-0.2l-0.1,0.2l-2.4,6l-2.4-5.8l-0.1-0.3c0,0,0,0.2,0,0.3v5.2c0,0.2,0.1,0.4,0.3,0.5H50c0.2-0.1,0.3-0.2,0.3-0.5v-6.3
		c0-0.2-0.2-0.4-0.3-0.5h1.8l2,4.9L55.7,26.1z"/>
	<path class="st4" d="M60.8,26.1c-0.2,0.1-0.3,0.2-0.3,0.5v6.3c0,0.2,0.1,0.4,0.3,0.5H59c0.2-0.1,0.3-0.2,0.3-0.5v-6.3
		c0-0.2-0.1-0.4-0.3-0.5H60.8z"/>
	<path class="st4" d="M68.6,28.2c-0.6-1.5-1.8-1.6-2.3-1.6c-1.7,0-2.7,1.3-2.7,3c0,1.5,0.7,3.3,2.8,3.3c0.5,0,1.6-0.2,2.3-1.6
		c0,0-0.1,1.5-0.1,1.5c-0.8,0.5-1.7,0.7-2.6,0.7c-2,0-3.8-1.4-3.8-3.7c0-1.9,1.3-3.8,3.9-3.8c0.8,0,1.6,0.2,2.4,0.6
		C68.5,26.5,68.6,28.2,68.6,28.2z"/>
	<path class="st4" d="M74.5,26.1h1.8c-0.2,0.1-0.3,0.2-0.3,0.5v6.3c0,0.2,0.1,0.4,0.3,0.5h-1.8c0.2-0.1,0.3-0.2,0.3-0.5v-3.3h-3.1
		v3.3c0,0.2,0.1,0.4,0.3,0.5h-1.8c0.2-0.1,0.3-0.2,0.3-0.5v-6.3c0-0.2-0.1-0.4-0.3-0.5h1.8c-0.2,0.1-0.3,0.2-0.3,0.5v2.5h3.1v-2.5
		C74.8,26.3,74.7,26.2,74.5,26.1z"/>
	<path class="st4" d="M79.8,26.1c-0.2,0.1-0.3,0.2-0.3,0.5v6.3c0,0.2,0.1,0.4,0.3,0.5H78c0.2-0.1,0.3-0.2,0.3-0.5v-6.3
		c0-0.2-0.1-0.4-0.3-0.5H79.8z"/>
	<path class="st4" d="M87.5,26.5l0.1,1.7c-0.5-1.4-1.8-1.7-2.3-1.7c-1.7,0-2.7,1.3-2.7,3c0,1.5,0.7,3.3,2.8,3.3c0.2,0,0.8,0,1.3-0.3
		v-1.9c0-0.2-0.1-0.4-0.3-0.5h1.8c-0.2,0.1-0.3,0.2-0.3,0.5v1.6c0,0.2,0.1,0.4,0.2,0.4c-0.9,0.5-2.3,0.8-3.1,0.8
		c-2,0-3.8-1.4-3.8-3.7c0-1.9,1.3-3.8,3.9-3.8C85.9,26,86.7,26.1,87.5,26.5z"/>
	<path class="st4" d="M94.8,32.8c0.1,0.2,0.2,0.3,0.5,0.5h-2.2c0.3-0.1,0.3-0.3,0.2-0.5c0-0.1-0.3-0.8-0.6-1.5h-2.5
		c-0.3,0.7-0.5,1.4-0.6,1.5c-0.1,0.3,0,0.4,0.2,0.5h-1.4c0.3-0.2,0.4-0.3,0.5-0.5c0.2-0.4,2.8-6.9,2.8-6.9S94.7,32.4,94.8,32.8z
		 M92.6,30.8c-0.5-1.2-1-2.6-1-2.6s-0.7,1.8-1,2.6H92.6z"/>
	<path class="st4" d="M101.1,26.6c0-0.2-0.1-0.4-0.3-0.5h1.1c-0.2,0.1-0.3,0.2-0.3,0.5v7.1c0,0-4.8-6-4.8-6.1v5.3
		c0,0.2,0.1,0.4,0.3,0.5H96c0.2-0.1,0.3-0.2,0.3-0.5v-5.7c0-0.4,0-0.4-0.2-0.7c-0.1-0.1-0.2-0.3-0.5-0.4h1.7l3.7,4.7L101.1,26.6
		L101.1,26.6z"/>
	<path class="st4" d="M110.2,31.2c0,1.3-1.1,2.2-2.3,2.2c-0.9,0-1.6-0.3-1.9-0.5l-0.1-1.8c0.2,0.8,0.8,1.8,1.8,1.8
		c1,0,1.3-0.8,1.3-1.3c0-1-0.9-1.2-1.8-1.7c-0.9-0.5-1.3-1.1-1.3-1.9c0-1.5,1.3-2,2.2-2c0.3,0,1,0.1,1.5,0.4l0,1.6
		c-0.1-0.6-0.7-1.4-1.7-1.4c-0.8,0-1.1,0.6-1.1,1c0,0.6,0.4,0.9,1.4,1.4C109.2,29.4,110.2,29.7,110.2,31.2z"/>
	<path class="st4" d="M114.2,26.6v6.2c0,0.2,0.1,0.4,0.3,0.5h-1.8c0.2-0.1,0.3-0.2,0.3-0.5v-6.2c-0.7,0-1.6,0.1-1.6,0.1
		c-0.2,0-0.4,0.2-0.5,0.4v-1h5.5v1c-0.1-0.2-0.2-0.4-0.5-0.4C115.9,26.7,115,26.6,114.2,26.6z"/>
	<path class="st4" d="M121.6,32.8c0.1,0.2,0.2,0.3,0.5,0.5H120c0.3-0.1,0.3-0.3,0.2-0.5c0-0.1-0.3-0.8-0.6-1.5h-2.5
		c-0.3,0.7-0.5,1.4-0.6,1.5c-0.1,0.3,0,0.4,0.2,0.5h-1.4c0.3-0.2,0.4-0.3,0.5-0.5c0.2-0.4,2.8-6.9,2.8-6.9S121.4,32.4,121.6,32.8z
		 M119.4,30.8c-0.5-1.2-1-2.6-1-2.6s-0.7,1.8-1,2.6H119.4z"/>
	<path class="st4" d="M124.8,26.6v6.2c0,0.2,0.1,0.4,0.3,0.5h-1.8c0.2-0.1,0.3-0.2,0.3-0.5v-6.2c-0.8,0-1.6,0.1-1.6,0.1
		c-0.2,0-0.4,0.2-0.5,0.4v-1h5.5v1c-0.1-0.2-0.2-0.4-0.5-0.4C126.4,26.7,125.5,26.6,124.8,26.6z"/>
	<path class="st4" d="M132.1,27c-0.2-0.3-0.4-0.4-0.8-0.4c-0.3,0-1.7,0-1.7,0v2.5h1.5c0.1,0,0.3-0.2,0.4-0.3v1.1
		c-0.1-0.1-0.2-0.3-0.4-0.3h-1.5v3.1c0.2,0,0.8,0.1,1.3,0.1c0.9,0,1.3,0,1.7-0.7l-0.2,1.2H128c0.2-0.1,0.3-0.2,0.3-0.5v-6.3
		c0-0.2-0.1-0.4-0.3-0.5h4.1L132.1,27z"/>
</g>
<g transform="matrix(1 0 0 1 0 1.0504)">
	<path class="st4" d="M29.2,6.1c0,0-1.9,4-2.8,6c-4.7-2.1-10.8-2.4-15.9,0.6C7,14.8,4.3,18.5,4,22.5c-0.1,2.7,1.1,5.6,0.7,8.2
		c-0.1,1.4-0.4,2.8-1.1,4.1c-0.9,1.4-1.9,2.7-3.6,2.8c0.4-0.5,3-1.8,2-7.8c-0.4-2.4-3.7-8.2-0.5-15.6C4.3,7.4,16.8-0.5,29.2,6.1z"/>
	<path class="st4" d="M14.9,17.9c1.6-0.6,3.4-0.6,5.1-0.2c3.2,0.6,5.6,2.5,6.8,5.4c1.2,3,2.1,5.5,4.2,8.1c0.1,0.1-3.3-0.5-3.3-0.6
		c0.8-6-4.8-6.3-6.4-4c1.2,1.3,3.2,2,4.8,1.7c-0.3,6,1.3,11.4,1.2,11.4c-1.4-0.2-7.5-3.8-9.3-5.4c-2.7,0.5-4.7,1.5-7.8,1.9
		c-0.1,0,0.6-2.3,0.5-3.4c0-3.1-2.4-6.1-0.7-9.9C11,20.4,12.5,18.7,14.9,17.9z"/>
	<g>
		<path class="st4" d="M17.1,16.1c0.2,0,0.5,0,0.5,0c0.1-0.2,0.2-1.7,1.5-2.8c1.4-1.2,3.3-1.1,3.2-1.1c-1.8-0.6-3.7-0.6-5.1-0.5
			L17.1,16.1z"/>
		<path class="st4" d="M5.4,21.5c-0.3,1.8-0.3,3.4-0.2,4.3c0,0,0.3-1.5,1.1-2.4c0.8-0.8,1.7-0.9,2.1-0.9c0,0,0.2-0.6,0.1-0.6
			L5.4,21.5z"/>
		<path class="st4" d="M9,21.1c0.1-0.2,0.2-0.4,0.3-0.7L6,19.1c-0.2,0.4-0.4,1-0.4,1.4L9,21.1z"/>
		<path class="st4" d="M9.8,19.9c0,0,0.5-0.7,0.5-0.7l-3-2.3c-0.3,0.4-0.6,0.8-0.8,1.3L9.8,19.9z"/>
		<path class="st4" d="M10.9,18.7c0,0,0.7-0.6,0.7-0.6l-2.6-3c-0.6,0.5-0.8,0.7-1.1,1.2L10.9,18.7z"/>
		<path class="st4" d="M12.2,17.6c0,0,0.8-0.4,0.8-0.4l-1.9-3.5c-0.7,0.4-1.2,0.7-1.4,0.9L12.2,17.6z"/>
		<path class="st4" d="M13.7,16.9c0.9-0.3,0.9-0.3,0.9-0.3l-1.1-4c-0.6,0.2-1.4,0.5-1.6,0.7L13.7,16.9z"/>
		<path class="st4" d="M15.3,16.3c0,0,0.8-0.2,0.8-0.2l0.1-4.3c0,0-1,0.2-1.8,0.4L15.3,16.3z"/>
	</g>
</g>
</svg>
